<?xml version="1.0" standalone="no"?><!DOCTYPE svg PUBLIC "-//W3C//DTD SVG 1.1//EN" "http://www.w3.org/Graphics/SVG/1.1/DTD/svg11.dtd"><svg t="1580616117186" class="icon" viewBox="0 0 1024 1024" version="1.1" xmlns="http://www.w3.org/2000/svg" p-id="5536" xmlns:xlink="http://www.w3.org/1999/xlink" width="32" height="32"><defs><style type="text/css"></style></defs><path d="M510.976 513.024m-498.688 0a498.688 498.688 0 1 0 997.376 0 498.688 498.688 0 1 0-997.376 0Z" fill="#306CFF" opacity=".1" p-id="5537"></path><path d="M558.592 393.728c9.216 9.216 23.552 14.336 36.352 15.36 10.24 1.024 22.016-1.024 31.232-7.168 10.24-6.144 18.432-15.36 25.6-24.576 7.168-10.24 13.312-23.04 15.36-37.376 3.584-10.752 4.608-21.504 3.584-32.768-2.048-15.36-9.216-30.72-18.432-43.52-7.168-9.216-15.36-17.408-25.6-22.016-6.656-3.584-14.848-4.608-23.04-3.584-9.216 2.048-18.432 8.192-25.6 13.312-9.216 9.216-17.408 18.432-24.576 30.208-7.168 10.24-11.776 22.528-14.336 35.328-1.024 13.824-1.024 27.648 1.024 41.984 3.584 12.8 8.192 25.6 18.432 34.816zM356.352 515.072c9.216-8.192 16.384-19.968 19.968-32.768 4.608-17.408 5.632-37.376 3.584-55.808 0-7.68-3.584-14.848-6.144-22.016-8.192-16.384-19.968-30.208-36.352-39.424-11.776-6.144-24.576-8.192-36.352-6.144-14.336 2.048-26.624 11.776-33.792 23.04-11.776 17.408-17.408 36.352-19.968 55.808-2.048 11.776 0 23.552 2.56 35.328 4.608 16.384 13.312 32.768 25.6 44.544 9.216 9.728 23.552 14.336 36.352 14.336 16.896-0.512 33.28-6.656 44.544-16.896zM411.648 394.24c9.216 7.168 19.968 10.24 31.232 10.24 10.24-1.024 22.016-5.632 30.208-12.8 10.24-9.216 18.432-21.504 23.04-33.792 10.24-25.6 11.776-54.784 2.048-81.92-5.632-17.408-14.848-32.768-30.208-43.52-9.728-6.144-21.504-9.216-32.768-7.168-8.192 1.024-15.36 4.608-22.528 10.752-12.8 9.216-20.992 22.016-26.624 37.376-9.216 24.064-9.216 52.224-2.048 76.8 4.096 16.896 13.312 33.28 27.648 44.032zM732.672 689.664c-2.048-20.992-10.24-40.448-25.6-55.808-2.048-2.048-6.144-6.144-9.216-8.192-19.968-16.384-38.4-33.792-55.808-51.712-18.432-18.432-36.352-38.4-51.712-60.416-11.776-19.968-28.16-37.376-48.64-46.592-12.8-6.144-28.16-9.216-43.52-7.168-25.6 2.048-50.176 17.408-65.536 37.376-4.608 4.608-7.168 10.24-10.24 15.36-11.776 17.408-26.624 33.792-41.984 48.64-8.192 8.192-17.408 15.36-25.6 23.04-4.608 6.144-10.24 8.192-15.36 12.8-17.408 14.336-35.328 30.208-45.568 50.176-8.192 12.8-11.776 28.16-12.8 43.52 0 12.8 2.048 25.6 6.144 38.4 3.584 12.8 10.24 25.6 18.432 36.352 14.336 18.432 36.352 29.184 58.368 30.208 26.624 1.024 54.784 0 81.92-4.608 12.8-2.048 24.576-6.144 36.352-7.168 25.6-2.048 51.712-1.024 76.8 6.144 20.992 7.168 41.984 10.24 64 11.776 22.016 0 45.568-2.048 65.536-12.8 14.336-8.192 25.6-19.968 32.768-35.328 7.68-19.968 13.312-41.984 11.264-64z m-243.712 59.392h-66.56c-7.168 0-14.336 0-20.992-1.024-15.36-3.584-28.16-12.8-37.376-24.576-7.168-8.192-10.24-19.968-12.8-30.208-2.048-10.24-2.048-22.016 0-33.792 3.584-12.8 10.24-24.576 19.968-33.792 8.192-7.168 17.408-12.8 28.16-16.384 3.584-1.024 8.192-2.048 12.8-2.048h39.424v-54.784h37.376v196.608z m60.416 0c-9.216 0-19.968-3.584-26.624-10.24-8.192-7.168-12.8-18.432-12.8-29.184v-99.328h38.4v92.16c0 3.584 1.024 7.168 3.584 10.24 3.584 3.584 7.168 4.608 11.776 4.608h39.424v-107.52h37.376v139.264h-91.136zM774.656 470.528c0-11.776-4.608-22.016-9.216-32.256-7.168-11.776-16.384-22.016-28.16-29.184-13.312-7.168-29.184-9.216-43.52-7.168-8.192 1.024-16.384 3.584-24.064 6.656-10.24 7.168-17.408 16.384-22.016 26.624-7.168 15.36-9.216 30.208-9.216 46.592 0 15.36 0 31.232 4.608 45.568 3.584 10.24 9.216 20.992 18.432 28.16 10.24 8.192 23.552 11.776 36.352 12.8 10.752 1.024 22.528 0 32.768-2.048s19.968-9.216 26.624-17.408c7.168-8.192 11.776-19.968 14.336-30.208 4.608-15.36 3.072-31.744 3.072-48.128z" fill="#306CFF" p-id="5538"></path><path d="M409.6 641.536c-7.168 3.584-13.824 8.192-18.432 17.408-2.048 6.656-3.584 13.824-3.584 20.992-1.024 8.192 2.56 17.408 7.168 24.576 6.144 8.192 16.384 12.8 26.624 12.8h30.208v-77.824h-33.792c-3.584 0-6.144 1.024-8.192 2.048z" fill="#306CFF" p-id="5539"></path></svg>