<?xml version="1.0" standalone="no"?><!DOCTYPE svg PUBLIC "-//W3C//DTD SVG 1.1//EN" "http://www.w3.org/Graphics/SVG/1.1/DTD/svg11.dtd"><svg t="1691327034443" class="icon" viewBox="0 0 1024 1024" version="1.1" xmlns="http://www.w3.org/2000/svg" p-id="4170" xmlns:xlink="http://www.w3.org/1999/xlink" width="32" height="32"><path d="M810.666667 213.333333a42.666667 42.666667 0 0 1 42.368 37.674667L853.333333 256v274.304c0 79.274667-50.944 147.498667-120.490666 152.106667L725.333333 682.666667H273.706667l97.792 97.834666a42.666667 42.666667 0 0 1-56.32 63.872l-4.010667-3.541333-170.666667-170.666667a42.666667 42.666667 0 0 1 0-60.330666l170.666667-170.666667a42.666667 42.666667 0 0 1 63.872 56.32l-3.541333 4.010667L273.706667 597.333333H725.333333c19.584 0 39.936-24.618667 42.410667-59.861333l0.256-7.168V256a42.666667 42.666667 0 0 1 42.666667-42.666667z" fill="#1296db" p-id="4171"></path></svg>