<?xml version="1.0" standalone="no"?><!DOCTYPE svg PUBLIC "-//W3C//DTD SVG 1.1//EN" "http://www.w3.org/Graphics/SVG/1.1/DTD/svg11.dtd"><svg t="1580616147909" class="icon" viewBox="0 0 1024 1024" version="1.1" xmlns="http://www.w3.org/2000/svg" p-id="6175" xmlns:xlink="http://www.w3.org/1999/xlink" width="32" height="32"><defs><style type="text/css"></style></defs><path d="M279.174 431.264L153.511 331.12c20.28-41.794 46.17-78.44 77.67-109.94 36.493-36.493 79.896-65.458 130.208-86.894 50.312-21.435 103.28-32.153 158.907-32.153 106.293 0 197.527 35.608 273.703 106.824L682.924 315.78c-43.58-42.163-97.79-63.244-162.628-63.244-45.706 0-87.957 11.515-126.754 34.545-38.796 23.03-69.533 54.298-92.208 93.803-9.29 16.183-16.676 32.976-22.16 50.379z" fill="#EA4235" p-id="6176"></path><path d="M283.026 600.607l-124.121 99.606a448.57 448.57 0 0 1-14.619-31.01c-21.435-50.311-32.153-103.28-32.153-158.907 0-55.626 10.718-108.595 32.153-158.907a454.286 454.286 0 0 1 9.225-20.27l125.663 100.145c-7.903 25.078-11.854 51.422-11.854 79.032 0 31.78 5.235 61.884 15.706 90.31z" fill="#FABC05" p-id="6177"></path><path d="M664.061 727.113L782.27 827.8c-17.24 14.764-36.095 27.977-56.564 39.638-59.7 34.014-128.17 51.02-205.41 51.02-55.626 0-108.595-10.717-158.907-32.153-50.312-21.436-93.715-50.4-130.209-86.894-28.771-28.772-52.863-61.838-72.275-99.199l124.12-99.606c4.939 13.406 11.042 26.44 18.309 39.1 22.675 39.506 53.412 70.773 92.208 93.803 38.797 23.03 81.048 34.545 126.754 34.545 30.825 0 59.17-4.251 85.034-12.755 23.322-7.667 42.899-17.063 58.731-28.187z" fill="#34A853" p-id="6178"></path><path d="M782.27 827.8L664.06 727.114a152.158 152.158 0 0 0 5.045-3.7c16.652-12.755 31.179-27.282 43.58-43.58 12.4-16.298 21.524-31.71 27.37-46.238 5.846-14.526 9.832-28.344 11.958-41.454H520.296V451.835h385.31c4.252 23.739 6.378 46.415 6.378 68.027 0 76.885-16.121 145.533-48.363 205.942-21.188 39.699-48.305 73.697-81.351 101.997z" fill="#4385F5" p-id="6179"></path></svg>