<?xml version="1.0" standalone="no"?><!DOCTYPE svg PUBLIC "-//W3C//DTD SVG 1.1//EN" "http://www.w3.org/Graphics/SVG/1.1/DTD/svg11.dtd"><svg t="1649038462231" class="icon" viewBox="0 0 1024 1024" version="1.1" xmlns="http://www.w3.org/2000/svg" p-id="6139" xmlns:xlink="http://www.w3.org/1999/xlink" width="200" height="200"><defs><style type="text/css">@font-face { font-family: feedback-iconfont; src: url("//at.alicdn.com/t/font_1031158_u69w8yhxdu.woff2?t=1630033759944") format("woff2"), url("//at.alicdn.com/t/font_1031158_u69w8yhxdu.woff?t=1630033759944") format("woff"), url("//at.alicdn.com/t/font_1031158_u69w8yhxdu.ttf?t=1630033759944") format("truetype"); }
</style></defs><path d="M558.6 404.2c-9.5-7.1-23.6-10.7-42.6-10.7h-36.3v101.3H516c18.9 0 33.1-3.6 42.6-10.7s14.2-20.4 14.2-39.9c0-19.6-4.8-32.9-14.2-40z m-201.8 0c-9.5-7.1-23.6-10.7-42.6-10.7H278v101.3h36.3c18.9 0 33.1-3.6 42.6-10.7s14.2-20.4 14.2-39.9c-0.1-19.6-4.9-32.9-14.3-40z m157.1-338c-239.1 0-433 193.9-433 433s193.9 433 433 433 433-193.9 433-433-193.9-433-433-433zM385.2 502.4c-14.7 14.3-35.2 21.5-61.5 21.5H278v102.8h-36.3V364.3h82c26.3 0 46.8 7.2 61.5 21.5 14.7 14.3 22.1 33.8 22.1 58.3-0.1 24.5-7.4 43.9-22.1 58.3z m201.8 0c-14.7 14.3-35.2 21.5-61.5 21.5h-45.7v102.8h-36.3V364.3h82c26.3 0 46.8 7.2 61.5 21.5 14.7 14.3 22.1 33.8 22.1 58.3-0.1 24.5-7.4 43.9-22.1 58.3z m217.5-109h-63.1v233.2h-36.3V393.4H642v-29.2h162.4v29.2z" fill="#D9E021" p-id="6140"></path></svg>