<?xml version="1.0" standalone="no"?><!DOCTYPE svg PUBLIC "-//W3C//DTD SVG 1.1//EN" "http://www.w3.org/Graphics/SVG/1.1/DTD/svg11.dtd"><svg t="1580616514787" class="icon" viewBox="0 0 1024 1024" version="1.1" xmlns="http://www.w3.org/2000/svg" p-id="1954" xmlns:xlink="http://www.w3.org/1999/xlink" width="32" height="32"><defs><style type="text/css"></style></defs><path d="M512 512m-512 0a512 512 0 1 0 1024 0 512 512 0 1 0-1024 0Z" fill="#ffffff" p-id="1955"></path><path d="M432.96 66.8A452.16 452.16 0 1 1 119.36 288a452.48 452.48 0 0 1 313.6-221.2z m44.88 53.76c-1.12 20.56-0.72 41.2 0 61.84a420.88 420.88 0 0 0-91.6 24.48c0.64-22.24 0.88-44.48 0.56-66.8a392.56 392.56 0 0 0 0 744q0-32.8-0.64-65.36a388.8 388.8 0 0 0 91.04 23.44c0 20 0 40-1.2 59.84a257.28 257.28 0 0 0 72 0c-1.12-19.76-1.6-39.44-1.68-59.2a432.96 432.96 0 0 0 91.28-23.2c-0.56 21.6-0.8 43.2 0 64.88a392.56 392.56 0 0 0-0.48-744c0 22.08 0 44.08 0.8 66.16a416 416 0 0 0-91.52-24c-1.28-20 4.4-42-1.44-60.96a568 568 0 0 0-67.04-0.8z" fill="#1296db" p-id="1956"></path><path d="M363.12 282.32c63.04-44.24 147.36-49.76 220.48-32 66.16 16.72 113.28 72.8 136 134.88-40.72 7.04-81.36 14.24-122.08 21.12-10.72-64.64-101.2-80-146.16-42.32-25.92 21.28-19.36 66.64 12.64 78 70 28.96 154 20.64 216 69.2 72 48.96 79.12 165.36 15.04 224-51.52 46.72-124.72 57.76-192 56.8-58.96 0-121.44-16-164.08-58.72-22.64-21.84-35.44-51.04-46.88-80 41.2-10.64 83.76-14.24 125.28-23.12a72.8 72.8 0 0 0 48.56 54.48C504 696 550.64 697.68 582.08 670.8c22.24-18.48 22.88-58.88-4.72-72.72C512.64 564.64 432 576 370.8 533.68 286.56 480.56 280 339.68 363.12 282.32z" fill="#1296db" p-id="1957"></path></svg>