<?xml version="1.0" standalone="no"?><!DOCTYPE svg PUBLIC "-//W3C//DTD SVG 1.1//EN" "http://www.w3.org/Graphics/SVG/1.1/DTD/svg11.dtd"><svg t="1580616136115" class="icon" viewBox="0 0 1024 1024" version="1.1" xmlns="http://www.w3.org/2000/svg" p-id="5922" xmlns:xlink="http://www.w3.org/1999/xlink" width="32" height="32"><defs><style type="text/css"></style></defs><path d="M318.836364 385.163636c0 18.618182 15.127273 33.745455 33.745454 33.745455 18.618182 0 33.745455-15.127273 33.745455-33.745455 0-18.618182-15.127273-33.745455-33.745455-33.745454-18.618182 0-33.745455 15.127273-33.745454 33.745454z m0 0M468.945455 384c0 11.636364 5.818182 23.272727 16.290909 29.090909 10.472727 5.818182 23.272727 5.818182 33.745454 0C529.454545 407.272727 535.272727 395.636364 535.272727 384s-5.818182-23.272727-16.290909-29.090909c-10.472727-5.818182-23.272727-5.818182-33.745454 0-9.309091 6.981818-16.290909 17.454545-16.290909 29.090909z m0 0M552.727273 534.109091c0 12.8 10.472727 23.272727 23.272727 23.272727s23.272727-10.472727 23.272727-23.272727-10.472727-23.272727-23.272727-23.272727-23.272727 10.472727-23.272727 23.272727z m0 0M671.418182 536.436364c0 8.145455 4.654545 16.290909 11.636363 19.781818 6.981818 4.654545 16.290909 4.654545 23.272728 0 6.981818-4.654545 11.636364-11.636364 11.636363-19.781818s-4.654545-16.290909-11.636363-19.781819c-6.981818-4.654545-16.290909-4.654545-23.272728 0-6.981818 3.490909-11.636364 11.636364-11.636363 19.781819z m0 0" fill="#04D267" p-id="5923"></path><path d="M512 0C229.236364 0 0 229.236364 0 512s229.236364 512 512 512 512-229.236364 512-512S794.763636 0 512 0z m-87.272727 630.690909c-26.763636 0-48.872727-5.818182-75.636364-11.636364l-75.636364 37.236364 20.945455-64c-53.527273-37.236364-86.109091-86.109091-86.109091-145.454545 0-102.4 96.581818-182.690909 215.272727-182.690909 104.727273 0 197.818182 64 216.436364 151.272727-6.981818-1.163636-13.963636-1.163636-20.945455-1.163637-102.4 0-182.690909 76.8-182.690909 169.89091 0 16.290909 2.327273 30.254545 6.981819 44.218181-5.818182 1.163636-12.8 2.327273-18.618182 2.327273z m314.181818 74.472727l16.290909 53.527273-58.181818-32.581818c-20.945455 5.818182-43.054545 11.636364-64 11.636364-102.4 0-182.690909-69.818182-182.690909-155.927273s80.290909-155.927273 182.690909-155.927273c96.581818 0 182.690909 69.818182 182.690909 155.927273-1.163636 48.872727-32.581818 90.763636-76.8 123.345454z m0 0" fill="#04D267" p-id="5924"></path></svg>