<?xml version="1.0" standalone="no"?><!DOCTYPE svg PUBLIC "-//W3C//DTD SVG 1.1//EN" "http://www.w3.org/Graphics/SVG/1.1/DTD/svg11.dtd"><svg t="1649141398158" class="icon" viewBox="0 0 1024 1024" version="1.1" xmlns="http://www.w3.org/2000/svg" p-id="4720" id="mx_n_1649141398162" xmlns:xlink="http://www.w3.org/1999/xlink" width="200" height="200"><defs><style type="text/css">@font-face { font-family: feedback-iconfont; src: url("//at.alicdn.com/t/font_1031158_u69w8yhxdu.woff2?t=1630033759944") format("woff2"), url("//at.alicdn.com/t/font_1031158_u69w8yhxdu.woff?t=1630033759944") format("woff"), url("//at.alicdn.com/t/font_1031158_u69w8yhxdu.ttf?t=1630033759944") format("truetype"); }
</style></defs><path d="M512 1024a512 512 0 1 1 512-512 512.558545 512.558545 0 0 1-512 512z" fill="#F4C91F" p-id="4721"></path><path d="M812.869818 471.877818l-0.930909-2.606545-10.705454 1.768727v0.837818l-7.07491 0.930909v0.930909l-6.23709 0.837819v0.930909h-2.699637v0.837818l-7.074909 0.930909v0.837818h-2.699636v0.930909h-3.537455v0.930909h-3.630545v0.837818h-3.537455v0.93091h-3.537454v0.837818h-4.468364v0.930909h-5.306182V484.072727h-5.399273v0.930909c-3.816727 1.117091-9.309091-0.465455-11.543272 1.768728h-0.930909l0.930909-2.699637h0.930909v-1.768727l1.861818-0.837818v-1.768727l2.606545-1.861819v-1.768727l1.768728-0.837818 0.930909-2.699636h0.837818v-1.489455l2.699636-1.768727 0.930909-3.630546 1.768728-0.837818v-1.768727l1.768727-0.930909v-1.768728l1.768727-0.837818 0.930909-3.630545 1.768728-0.837818 0.837818-3.630546 1.861818-0.837818v-1.768727h0.837818V446.836364h0.930909v-1.861819h0.837818v-1.768727l1.768728-0.837818v-1.768727H763.345455v-1.861818h0.930909V437.527273h0.837818v-1.768728h0.930909v-1.768727h0.837818v-1.768727h0.930909v-2.141091h0.837818V428.218182h0.930909v-1.861818h0.93091v-1.768728h0.837818l0.930909-3.537454H772.654545v-1.768727h0.93091v-2.699637h0.837818l0.930909-3.537454h0.930909v-2.699637h0.837818l0.930909-3.537454h0.837818v-2.699637h0.930909v-1.768727h0.837819l0.930909-5.306182h0.837818v-1.768727h0.930909c3.909818-12.846545 7.726545-25.6 11.543273-38.353455v-4.468363h0.930909v-3.537455h0.930909V344.436364h0.837818v-4.468364h0.930909V335.127273h0.837818v-5.306182H800.581818v-6.237091h0.837818v-6.237091h0.930909v-9.309091a156.113455 156.113455 0 0 0 1.768728-35.653818v-14.242909h-0.837818v-1.768727h-0.93091l-0.930909-2.699637c-9.309091 0.465455-12.939636 8.564364-17.780363 13.405091a162.629818 162.629818 0 0 1-19.549091 16.942546l-3.630546 4.375272h-1.768727l-2.699636 3.630546-2.606546 0.837818-0.930909 1.768727h-1.768727l-2.699636 3.630546h-1.768728l-0.837818 1.768727h-1.861818l-1.768727 2.699636h-1.768728l-0.837818 1.768728-2.699636 0.837818v0.930909h-1.954909l-0.930909 1.768727-2.606546 0.930909v0.837818h-1.861818l-0.837818 1.768728H726.109091l-0.930909 1.768727-3.537455 0.930909-0.930909 1.768727-3.537454 0.930909-0.930909 1.768728-5.306182 1.768727-0.930909 1.768727h-1.768728v0.930909h-1.768727v0.837819h-1.768727v0.930909h-1.768727V325.818182h-1.768728v0.930909h-1.768727v0.837818H698.181818v0.930909h-1.861818v0.930909h-1.768727v0.837818h-1.954909v0.93091h-1.768728v0.837818H688.872727v0.930909h-1.768727v0.837818h-2.699636V335.127273l-3.537455 0.930909v0.837818h-2.699636v0.930909l-3.537455 0.837818v0.930909l-5.399273 0.837819v0.930909h-1.768727v0.930909l-5.306182 0.837818v0.930909H660.945455V344.436364l-5.399273 0.930909v0.837818h-2.978909v0.930909h-2.699637v0.930909l-9.309091 1.768727v0.837819h-3.537454v0.930909h-3.537455v0.837818h-3.258181V353.745455h-3.537455v0.837818h-3.537455v0.930909h-4.468363a125.021091 125.021091 0 0 1-18.618182 4.468363c1.210182-3.258182 2.420364-6.516364 3.537455-9.30909h0.930909L605.090909 344.436364h0.930909v-1.768728h0.930909l1.768728-9.309091h0.837818v-2.606545h0.930909v-3.630545h0.837818v-3.537455h0.930909v-4.468364h0.930909v-4.375272H614.4v-6.237091a128.186182 128.186182 0 0 0-4.468364-62.370909v-3.537455h-0.837818v-2.699636h-0.930909v-2.699637h-0.837818v-2.699636h-0.930909v-3.537455H605.090909l-0.837818-5.306181h-0.930909c-0.837818-1.396364-1.675636-1.582545-2.606546-2.699637h-2.699636l-0.930909 1.768728H595.781818l-0.837818 1.768727h-0.930909v2.699636h-0.837818v1.768727h-0.930909v2.699637h-0.930909l-0.837819 3.537454h-0.930909l-0.837818 3.537455L586.472727 242.036364l-1.861818 5.306181h-0.837818l-0.930909 2.699637-1.768727 0.930909v1.768727h-0.837819l-0.930909 2.606546-1.768727 0.930909v1.768727l-1.768727 0.930909-0.930909 2.606546-5.306182 4.468363v1.768727l-4.468364 3.630546c-2.420364 2.606545-4.747636 5.306182-7.168 8.005818h-1.768727l-3.537455 4.468364h-1.768727l-1.768727 2.606545h-1.768727l-1.861819 2.699637h-1.768727l-0.837818 1.768727h-1.768727l-0.930909 1.768727h-1.768728l-0.930909 1.768727h-1.768727l-0.837818 1.861819-3.630546 0.837818-0.837818 1.768727h-1.582545v0.930909h-1.861819v0.837818h-1.768727v0.930909h-1.768727v0.930909H521.309091v0.837819h-1.768727v0.930909h-1.768728v0.837818h-1.768727v0.930909l-5.399273 1.768727v0.930909h-2.327272v0.837819l-3.630546 0.930909v0.837818l-5.306182 0.930909v0.837818h-1.768727v0.930909l-31.185454 9.309091h-4.468364v0.837818h-4.468364v0.930909h-4.468363V325.818182h-4.375273v0.930909l-11.077818 0.837818-43.659637 10.705455a322.746182 322.746182 0 0 0-60.602181 26.717091h-1.768728v0.930909h-1.768727v0.837818h-1.768727v0.930909h-1.768728l-0.930909 1.768727h-1.768727v0.930909h-1.396364l-0.930909 1.768728-3.537454 0.837818-0.930909 1.861818h-1.768728l-0.837818 1.768727h-1.768727a10.612364 10.612364 0 0 0-0.930909 1.768727h-1.768727v0.837819l-2.699637 0.930909-0.837818 1.768727h-1.768727l-1.861818 2.699636h-1.768728l-1.768727 2.699637h-1.768727l-1.768727 2.606545h-1.768728l-3.630545 4.468364H288.581818l-4.468363 5.306182h-1.768728l-10.612363 11.636363-6.237091 5.306182V418.909091l-5.399273 4.468364-0.837818 2.699636-2.699637 1.768727v1.768727l-2.699636 1.768728v1.768727l-2.699636 1.861818v1.768727l-1.768728 0.837819-0.837818 2.699636h-0.930909v1.768727l-1.768727 0.930909-0.930909 2.606546h-0.837818l-0.930909 3.630545-1.768728 0.837818-1.768727 5.399273-1.768727 0.837818v1.768728h-0.930909v1.861818h-0.837819v1.768727h-0.930909v1.768727h-0.837818v1.768728H232.727273v1.768727h-0.837818l-1.861819 5.306182h-0.837818V474.763636h-0.930909l-0.837818 3.537455h-0.930909v2.699636h-0.837818v1.768728h-0.930909l-0.93091 5.399272H223.418182v1.768728h-0.930909l-1.768728 9.30909h-1.024v2.699637h-0.930909v2.699636h-0.930909v3.537455h-0.837818v3.537454h-0.930909v4.468364h-0.837818v3.630545H214.109091v5.306182h-0.837818v5.306182h-0.930909v7.168h-0.930909v9.309091a119.808 119.808 0 0 0-0.837819 28.485818h0.837819v10.705455h0.930909v7.168h0.930909v6.237091H214.109091v5.585454c3.444364 11.636364 5.585455 24.110545 9.774545 34.722909l0.930909 5.399273h0.93091v1.768727h0.837818l0.930909 5.306182h0.837818l0.930909 3.537455h0.837818v2.699636h0.930909l0.930909 3.537454H232.727273v1.861819h0.930909v2.606545h0.837818l1.768727 5.399273h0.930909l0.837819 3.537454 1.861818 0.930909 1.768727 5.306182 1.768727 0.837818 0.837818 3.630546 1.861819 0.837818 0.837818 3.630546 1.768727 0.837818v1.768727l1.768727 0.930909v1.768727l1.861819 0.930909V698.181818l1.768727 0.837818v1.768728l2.606545 1.861818v1.768727l2.699637 1.768727v1.768728l2.699636 1.768727v1.768727l4.468364 3.537455V716.8l6.237091 5.306182v1.768727l5.306181 4.468364 8.005819 9.309091H288.581818c1.768727 2.048 3.630545 4.096 5.399273 6.237091h1.768727l3.537455 4.468363h1.768727l2.699636 3.537455h1.768728L307.2 754.036364h1.768727l0.930909 1.861818h1.768728l1.768727 2.606545h1.768727l0.930909 1.768728 2.699637 0.930909v0.930909l3.537454 0.837818 0.837818 1.768727h1.861819l0.837818 1.768727 3.537454 0.93091 0.930909 1.768727 14.242909 6.237091v0.930909h1.768728v0.837818h1.768727v0.930909l5.399273 1.768727v0.930909h2.606545V781.963636l3.630546 0.930909v0.837819l5.306181 0.930909v0.837818h1.768728v0.930909l5.399272 0.837818v0.930909h2.606546v0.930909h2.699636v0.837819h2.699637V791.272727h2.606545l7.168 0.930909v0.837819h3.537455v0.930909h3.630545v0.930909h4.375273v0.837818h4.468363v0.930909h4.468364v0.837818h6.237091v0.930909h7.168v0.837818h10.612364V800.581818h29.416727v-0.930909l17.873454-0.837818v-0.930909h6.237091v-0.837818H493.381818v-0.930909h4.468364v-0.837819l8.005818-0.930909v-0.930909h3.537455v-0.837818l6.23709-0.930909V791.272727h2.699637v-0.930909H521.309091v-0.837818h2.699636v-0.930909h2.606546v-0.930909h2.699636v-0.837818h1.768727v-0.930909l5.399273-0.837819v-0.930909l3.537455-0.837818V781.963636h2.699636v-0.930909l3.537455-0.930909v-0.930909H549.236364v-0.837818l5.306181-1.768727v-0.930909h1.768728v-0.837819H558.545455v-0.930909l5.399272-1.768727 0.837818-1.768727 5.399273-1.768728 0.837818-1.861818 3.630546-0.837818v-0.930909l2.606545-0.837818 0.930909-1.768727 3.537455-0.93091 1.768727-2.699636 2.699637-0.837818v-0.930909h1.768727l0.930909-1.768727h1.768727l0.837818-1.768728 2.699637-0.930909 2.699636-3.537454h1.768727l2.699637-3.537455h1.768727l4.468364-5.399273h1.768727l9.309091-10.612363 8.005818-7.168v-1.768728l5.399273-4.468363v-1.768727l4.375272-3.537455v-1.768727l2.699637-1.861818v-1.768728l2.699636-1.768727v-1.768727l1.768727-0.930909v-1.768728l2.699637-1.768727v-1.768727l1.768727-0.930909v-1.768728l1.768727-0.837818v-1.768727h0.837819v-1.861818l1.861818-0.837818 0.837818-3.537455 1.768727-0.930909c0-1.210182 0.651636-2.327273 0.930909-3.537455l1.768728-0.930909v-1.768727h0.930909v-1.768727h0.837818v-1.768727H660.945455v-1.768728h0.837818v-1.768727h0.930909v-1.861818h0.837818v-1.768727h0.930909l1.768727-5.306182h0.930909v-2.699637h0.837819c0-1.210182 0.651636-2.327273 0.930909-3.537454h0.837818L679.563636 626.036364v-3.630546h0.837819v-3.537454h0.930909c0.930909-2.885818 0-5.12 1.768727-7.074909 3.072-5.213091 8.098909-4.468364 13.312-7.168v-0.837819l5.399273-1.861818v-0.837818h2.699636v-0.930909l3.537455-0.837818v-0.930909l3.537454-0.837819 0.930909-1.861818h1.768727v-0.837818h1.768728v-0.930909h1.768727v-0.837818h1.768727l0.930909-1.768727 3.537455-0.93091 0.930909-1.768727 3.537455-0.930909 0.837818-1.768727h1.861818l0.837818-1.768727h1.768727l1.768728-2.699637h1.861818l0.837818-1.768727h1.768727l0.930909-1.768727 2.606546-0.930909 2.699636-3.537455h1.768727l3.630546-4.468364h1.768727c2.606545-2.978909 5.306182-5.864727 8.005818-8.843636L772.654545 549.236364v-1.768728l4.468364-3.630545v-1.768727l1.768727-0.837819v-0.930909l1.768728-0.837818v-1.861818l2.699636-1.768727v-1.768728l1.768727-0.837818 0.930909-2.699636h0.837819v-1.768727l1.768727-0.930909v-1.768728l1.861818-0.837818v-1.861818l1.768727-0.837818V521.309091h0.837818v-1.768727l1.768728-0.930909 0.930909-3.537455h0.930909v-2.141091l1.768727-0.930909v-1.768727h0.837818v-1.768728H800.581818v-1.768727h0.837818v-1.861818h0.930909V502.690909h0.93091v-1.768727h0.837818l1.768727-5.306182h0.930909l0.837818-4.468364h0.930909v-1.768727h0.930909v-2.699636H809.890909v-1.768728h0.930909v-2.699636h0.837818v-2.606545h0.930909a9.309091 9.309091 0 0 0 0.279273-7.726546z m-512 149.690182l-3.537454 0.837818V623.709091h-1.768728v0.930909h-3.537454a35.933091 35.933091 0 0 1-16.942546 0V623.709091h-1.768727v-0.930909l-5.399273-1.768727a52.968727 52.968727 0 0 1-9.309091-9.309091l-3.630545-2.699637v-1.768727l-1.768727-0.930909-0.837818-2.606546H251.345455v-1.861818l-1.768728-0.837818v-1.768727l-1.768727-0.930909-1.768727-5.306182h-0.930909l-0.930909-3.630546h-0.837819l-0.930909-4.375272H242.036364v-2.699637h-0.930909v-1.768727h-0.93091v-2.699636h-0.930909v-2.699637h-0.930909v-3.537454h-0.837818v-0.930909h0.837818v-1.768728a9.960727 9.960727 0 0 1 6.237091 2.699637l0.930909 1.768727 2.699637 0.930909 1.768727 2.606546H251.345455l1.768727 2.699636h1.768727l0.930909 1.768727h1.768727l1.768728 2.699637h1.768727l0.930909 1.768727 3.537455 0.930909 0.930909 1.768727 3.537454 0.837818 0.930909 1.861819 8.005819 2.606545v0.930909h1.768727V595.781818h2.606545v0.930909h1.861818v0.930909h3.537455v0.837819h2.699636v0.930909h2.606546v0.837818l7.168 0.930909a39.191273 39.191273 0 0 0 9.774545 2.699636c0.744727 0.930909 0 0 0.930909 0.837818a28.485818 28.485818 0 0 1-11.264 16.849455z m245.853091-62.370909h-0.930909l-0.837818 4.468364h-0.930909v1.768727h-0.837818v1.768727h-0.93091l-0.837818 3.537455H539.927273v1.861818h-0.930909v1.768727h-0.837819v1.768727h-0.930909v1.768728h-0.837818v1.768727l-1.768727 0.930909-0.930909 3.537455h-0.930909l-0.837818 2.699636-1.768728 0.837818v1.768727h-0.930909l-0.837818 2.699637-1.861818 0.930909v1.768727l-1.768727 0.837818-0.837819 2.699637-3.537454 2.699636a94.301091 94.301091 0 0 1-45.428364 32.954182l-8.098909 0.837818a87.877818 87.877818 0 0 1-46.824727-1.861818v-0.837818l-3.537455-0.930909v-0.837819l-4.468363-0.930909-0.837819-1.768727-3.630545-0.930909-0.837818-1.768727h-1.768727l-0.93091-1.303273h-1.768727l-1.954909-3.072a34.722909 34.722909 0 0 1-13.405091-14.242909l2.699637-0.837818V605.090909h4.468363v-0.837818H400.290909v-0.930909h6.237091v-0.930909l9.774545-0.837818v-0.93091h4.468364v-0.837818h3.537455v-0.930909H428.218182v-0.837818h4.468363c10.519273-3.444364 22.155636-6.795636 32.116364-10.705455l8.005818-1.768727v-0.930909H474.763636v-0.930909h2.699637v-0.837818l4.468363-0.930909v-0.837818h1.768728v-0.93091h2.606545v-0.837818h1.861818v-0.930909h2.606546V577.163636l3.537454-0.837818v-0.930909h2.699637v-1.024l3.537454-0.930909v-0.837818H502.690909v-0.930909l3.537455-0.930909v-0.837819h1.861818v-0.930909h2.606545V567.854545l5.399273-1.768727v-0.930909h1.768727v-0.837818h2.699637v-0.930909l5.306181-1.768727v-0.93091h1.768728v-0.837818H530.618182v-0.930909h1.768727V558.545455l5.306182-1.861819v-0.837818H539.927273v-0.930909h1.768727v-1.024h3.537455v-0.930909l1.861818 0.930909z" fill="#1E1E1E" p-id="4722"></path></svg>